<svg xmlns="http://www.w3.org/2000/svg" width="22" height="22" viewBox="0 0 22 22"><path fill="#FF4D4D" fill-rule="evenodd" d="M11,0 C17.0751322,0 22,4.92486775 22,11 C22,17.0751322 17.0751322,22 11,22 C4.92486775,22 0,17.0751322 0,11 C0,4.92486775 4.92486775,0 11,0 Z M11.1722279,4.00070977 L10.8662988,4 C8.41342359,4 7.88717503,4.15135096 7.60778048,4.19293885 C5.99783752,4.43223692 4.52760507,5.57350423 4.17089572,7.20426576 C3.999323,8.00738114 3.98101281,8.89776575 4.01288607,9.71451575 C4.05832231,10.885785 4.06713834,12.0549965 4.17293026,13.2214965 C4.24606701,13.9963427 4.37365239,14.7650157 4.55473101,15.5217465 C4.89380717,16.9193619 6.26639153,18.0824388 7.61116697,18.556958 C9.05095321,19.0518042 10.5993151,19.1339388 12.0829176,18.794208 C12.2461121,18.7560349 12.4075283,18.711708 12.5671094,18.6612657 C12.927212,18.5460542 13.3497092,18.4171888 13.6603011,18.1908426 C13.6645578,18.1876696 13.6680578,18.1835734 13.6705173,18.1788426 C13.6729767,18.1741311 13.6743578,18.1689003 13.6745281,18.1635734 L13.6745281,17.0332273 C13.6744524,17.0282465 13.6732794,17.0233426 13.6710848,17.0188811 C13.6688713,17.0144196 13.6657119,17.0104965 13.6617957,17.0074388 C13.6578984,17.0043619 13.6533578,17.002208 13.6485335,17.0011119 C13.6436903,17.000035 13.6386767,17.0000542 13.6338524,17.0011696 C12.6833283,17.2294388 11.7092879,17.3438619 10.7320313,17.3420542 C9.05021537,17.3420542 8.59788302,16.5396311 8.4683452,16.2055542 C8.36423441,15.9168426 8.2981128,15.6156888 8.27168307,15.3097273 C8.27141821,15.3045927 8.27236415,15.299458 8.27442632,15.2947465 C8.27648848,15.2900542 8.27964794,15.2859003 8.28360199,15.2826503 C8.28757496,15.2794003 8.29224793,15.2771311 8.29724253,15.276035 C8.30223712,15.2749196 8.3074209,15.275035 8.31237766,15.2763234 C9.24706669,15.503035 10.2052152,15.617458 11.1667312,15.617208 C11.3979771,15.617208 11.628542,15.617208 11.8598068,15.6110734 C12.8268472,15.5838042 13.8461037,15.534035 14.7975549,15.3472273 C14.8212982,15.342458 14.8450225,15.3383619 14.8653792,15.3322273 C16.3661222,15.0424773 17.7943112,14.1330157 17.9394382,11.8300157 C17.9448679,11.7393427 17.9584328,10.8803234 17.9584328,10.7862465 C17.9591138,10.4664965 18.0608409,8.51803498 17.9435057,7.32086191 C17.7278679,5.70917346 16.3308574,4.43905423 14.674809,4.19293885 C14.4065902,4.15301448 13.4202659,4.01193246 11.1722279,4.00070977 Z M13.3225795,6.38616961 C14.0197226,6.38616961 14.5818982,6.63295807 15.0118495,7.11359268 C15.4273467,7.5949196 15.6350764,8.24486191 15.6350764,9.06343883 L15.6337142,13.0674196 L14.0556686,13.0674196 L14.0556686,9.18138113 C14.0556686,8.36326575 13.7165848,7.94603499 13.0268958,7.94603499 C12.2687202,7.94603499 11.8889608,8.43963114 11.8889608,9.41453498 L11.8889608,11.5416311 L10.3203935,11.5416311 L10.3203935,9.41453498 C10.3203935,8.43963114 9.93995306,7.94603499 9.18177751,7.94603499 C8.49615601,7.94603499 8.1536858,8.36326575 8.15300471,9.18138113 L8.15300471,13.0674196 L6.57630228,13.0674196 L6.57630228,9.06343883 C6.57630228,8.24532345 6.7840509,7.59538114 7.1995292,7.11359268 C7.62811832,6.63295807 8.19031282,6.38616961 8.88813702,6.38616961 C9.69580445,6.38616961 10.3061476,6.69840037 10.7130367,7.3222273 L11.1056988,7.98490037 L11.4990231,7.3222273 C11.9059122,6.69840037 12.5162553,6.38616961 13.3225795,6.38616961 Z"/></svg>