<svg xmlns="http://www.w3.org/2000/svg" width="22" height="22" viewBox="0 0 22 22"><path fill="#FF4D4D" d="M11,0 C17.0751322,0 22,4.92486775 22,11 C22,17.0751322 17.0751322,22 11,22 C4.92486775,22 0,17.0751322 0,11 C0,4.92486775 4.92486775,0 11,0 Z M14.5379432,10.6882873 C13.3552007,11.668222 13.3552007,11.668222 12.3562323,12.4958877 C11.5449399,13.1680381 10.4550601,13.1680381 9.64376253,12.4958835 C8.64479932,11.668222 8.64479932,11.668222 7.46209233,10.6883168 C6.0011985,9.47792179 5.41141438,8.9892677 5.00016994,8.64853847 L5,15 C5,15.5523153 5.44768475,16 6,16 L16,16 C16.5523153,16 17,15.5523153 17,15 L17.0008433,8.64769898 C16.5895577,8.98846233 16.0000133,9.47691778 14.5379432,10.6882873 Z M16,6 L6,6 C5.44768475,6 5,6.44768475 5,7 L5.00051545,7.31841701 C5.58935048,7.80628699 5.84640031,8.01926059 8.00454783,9.80735147 C9.18728896,10.787285 9.18728896,10.787285 10.1862435,11.6149393 C10.6730244,12.018234 11.3269756,12.018234 11.8137513,11.6149436 C12.812711,10.787285 12.812711,10.787285 13.9954166,9.80738092 C16.1548113,8.01825671 16.4109381,7.80604793 17.00048,7.31759223 L17,7 C17,6.44768475 16.5523153,6 16,6 Z"/></svg>