<?xml version="1.0" encoding="UTF-8"?>
<svg width="96px" height="84px" viewBox="0 0 96 84" version="1.1" xmlns="http://www.w3.org/2000/svg" xmlns:xlink="http://www.w3.org/1999/xlink">
    <title>logo</title>
    <g id="Page-1" stroke="none" stroke-width="1" fill="none" fill-rule="evenodd">
        <g id="footer-logo" transform="translate(-672.000000, -12601.000000)" fill="#FF4D4D">
            <path d="M678.243986,12631.0066 C678.898816,12625.5793 680.857704,12620.305 683.945625,12615.7951 C690.133136,12606.7604 700.796173,12601.0578 711.894673,12601.006 C717.298069,12600.998 722.701931,12600.998 728.105793,12601.006 C735.995021,12601.0428 743.782035,12603.89 749.790319,12608.9052 C756.378289,12614.4045 760.710527,12622.4069 761.755081,12631.0066 C761.836293,12631.0034 761.917971,12631.0015 762.000117,12631.0015 C765.311604,12631.0015 768,12633.69 768,12637.001 L768,12648.999 C768,12652.31 765.311604,12654.9985 762.000117,12654.9985 C761.918905,12654.9985 761.83816,12654.9966 761.757414,12654.9934 C761.113319,12660.3502 759.200638,12665.5499 756.171992,12670.0317 C749.993816,12679.1752 739.204761,12684.9422 728.105793,12684.994 C722.701931,12685.002 717.298069,12685.002 711.894673,12684.994 C704.231345,12684.9586 696.63336,12682.2664 690.696019,12677.4933 C683.845277,12671.9857 679.33568,12663.6767 678.252387,12654.9929 C678.168842,12654.9966 678.084362,12654.9985 677.999883,12654.9985 C674.688396,12654.9985 672,12652.31 672,12648.999 L672,12637.001 C672,12633.69 674.688396,12631.0015 677.999883,12631.0015 C678.081562,12631.0015 678.163241,12631.0034 678.243986,12631.0066 Z M713.006351,12613.0109 C705.905837,12613.0216 698.879963,12616.7028 694.857847,12622.5771 C692.38356,12626.1911 691.033525,12630.5311 691.012999,12634.9317 C691.004602,12640.331 690.988275,12645.73 691.013465,12651.1293 C691.068045,12658.1928 694.716033,12665.0696 700.46791,12669.0601 C704.086975,12671.5704 708.46596,12672.9471 712.865003,12672.9811 C718.286603,12673.0063 723.708203,12673.0063 729.130269,12672.9811 C738.201255,12672.9107 746.788487,12666.846 749.783382,12658.1531 C750.561029,12655.8961 750.963147,12653.5104 750.981807,12651.1293 C751.006064,12645.7071 751.006064,12640.2853 750.981807,12634.8631 C750.927227,12627.9214 747.374404,12621.0684 741.692501,12617.0485 C738.044047,12614.4668 733.596021,12613.0458 729.130269,12613.0113 C723.755319,12612.9861 718.380835,12613.0109 713.006351,12613.0109 Z M715,12638.0002 C715,12634.6888 712.311656,12632 709.000233,12632 C705.68881,12632 703,12634.6888 703,12638.0002 L703,12649.9998 C703,12653.3112 705.68881,12656 709.000233,12656 C712.311656,12656 715,12653.3112 715,12649.9998 L715,12638.0002 Z M739,12638.0002 C739,12634.6888 736.311656,12632 733.000233,12632 C729.68881,12632 727,12634.6888 727,12638.0002 L727,12649.9998 C727,12653.3112 729.68881,12656 733.000233,12656 C736.311656,12656 739,12653.3112 739,12649.9998 L739,12638.0002 Z" id="logo"></path>
        </g>
    </g>
</svg>