<?xml version="1.0" encoding="UTF-8"?>
<svg width="386px" height="125px" viewBox="0 0 386 125" version="1.1" xmlns="http://www.w3.org/2000/svg" xmlns:xlink="http://www.w3.org/1999/xlink">
    <title>logo_ivory</title>
    <g id="Website" stroke="none" stroke-width="1" fill="none" fill-rule="evenodd">
        <path d="M185.806676,0 C189.116941,0 191.80044,2.69056147 191.80044,6.00953725 L191.80044,81.7297066 C191.80044,85.0486824 189.116941,87.7392439 185.806676,87.7392439 C182.496412,87.7392439 179.812913,85.0486824 179.812913,81.7297066 L179.812913,6.00953725 C179.812913,2.69056147 182.496412,0 185.806676,0 Z M279.117591,31.2495937 L269.527569,31.2495937 C258.27267,31.2495937 249.148772,40.3975027 249.148772,51.6820204 L249.148772,67.3068172 C249.148772,78.5913349 258.27267,87.7392439 269.527569,87.7392439 L279.117591,87.7392439 C290.372489,87.7392439 299.496387,78.5913349 299.496387,67.3068172 L299.496387,51.6820204 C299.496387,40.3975027 290.372489,31.2495937 279.117591,31.2495937 Z M279.117591,43.2686682 C283.751961,43.2686682 287.50886,47.0354543 287.50886,51.6820204 L287.50886,67.3068172 C287.50886,71.9533833 283.751961,75.7201694 279.117591,75.7201694 L269.527569,75.7201694 C264.893199,75.7201694 261.136299,71.9533833 261.136299,67.3068172 L261.136299,51.6820204 C261.136299,47.0354543 264.893199,43.2686682 269.527569,43.2686682 L279.117591,43.2686682 Z M382.16161,31.6522227 C385.250092,32.8466294 386.788085,36.3251857 385.596814,39.4217956 L357.706377,111.920625 C357.629184,112.121284 357.549057,112.320203 357.466058,112.517341 L357.361048,112.78761 C357.242775,113.09593 357.101919,113.388871 356.941101,113.665266 C353.521366,120.565576 346.468152,125.006845 338.675034,124.999992 L336.844261,124.998373 C333.533998,124.995459 330.852855,122.302536 330.855759,118.983561 C330.858668,115.664587 333.544522,112.976389 336.854786,112.979303 L338.685559,112.980914 C342.017369,112.983847 345.020732,111.012239 346.361825,107.982766 L352.040934,93.1750398 C352.788269,91.2268569 352.786631,89.0696965 352.03634,87.1226564 L335.137704,43.2686682 L324.670195,43.2686682 C320.267544,43.2686682 316.656809,46.6681926 316.306743,50.9919947 L316.278926,51.6820204 L316.278926,81.7297066 C316.278926,85.0486824 313.595426,87.7392439 310.285162,87.7392439 C306.974898,87.7392439 304.291398,85.0486824 304.291398,81.7297066 L304.291398,51.6820204 C304.291398,40.3975027 313.415296,31.2495937 324.670195,31.2495937 L335.959187,31.2495937 C340.417277,31.2495937 344.416244,33.9988198 346.022936,38.1682616 L359.637913,73.5 L374.412431,35.0964664 C375.603702,31.9998565 379.073128,30.4578161 382.16161,31.6522227 Z M236.557084,35.0932981 C237.750101,31.9973637 241.220396,30.4572893 244.308204,31.6534458 C247.396012,32.8496023 248.932044,36.3290294 247.739027,39.4249639 L231.833008,80.701826 C230.736935,83.5461857 228.49442,85.7946029 225.657526,86.89356 C220.099471,89.0466417 213.85294,86.2745079 211.70551,80.701826 L195.799491,39.4249639 C194.606474,36.3290294 196.142506,32.8496023 199.230314,31.6534458 C202.318122,30.4572893 205.788417,31.9973637 206.981434,35.0932981 L221.769259,73.465391 L236.557084,35.0932981 Z M126.901628,0 C144.206772,0 158.235363,13.9909197 158.235363,31.2495937 L158.235363,56.2492687 C158.235363,73.5079427 144.206772,87.4988624 126.901628,87.4988624 L91.6064132,87.4988624 C88.1453844,87.4988624 85.3396662,84.7006785 85.3396662,81.2489436 C85.3396662,77.7972088 88.1453844,74.9990249 91.6064132,74.9990249 C101.935027,74.9990249 110.317129,66.6094689 110.317129,56.2492687 L110.317129,31.2495937 C110.317129,20.8893935 101.935027,12.4998375 91.6064132,12.4998375 L66.6289499,12.4998375 C56.3003358,12.4998375 47.9182337,20.8893935 47.9182337,31.2495937 L47.9182337,56.2492687 C47.9182337,66.496858 56.1191065,74.8164104 66.2928455,74.9960595 L66.6289499,74.9990249 C70.0899788,74.9990249 72.895697,77.7972088 72.895697,81.2489436 L72.895697,106.293261 C72.895697,109.634663 75.5438316,112.359222 78.8612118,112.493362 L79.1176816,112.498537 C82.5787104,112.498537 85.3844286,115.296721 85.3844286,118.748456 C85.3844286,122.200191 82.5787104,124.998375 79.1176816,124.998375 C68.7593167,124.998375 60.3622029,116.62381 60.3622029,106.293261 L60.362,87.498 L31.3337353,87.4988624 C14.0285911,87.4988624 0,73.5079427 0,56.2492687 L0,31.2495937 C0,13.9909197 14.0285911,0 31.3337353,0 L126.901628,0 Z M126.901628,12.4998375 L116.603351,12.4990468 C120.526364,17.722629 122.850624,24.2153674 122.850624,31.2495937 L122.850624,56.2492687 C122.850624,63.283495 120.526364,69.7762334 116.603351,74.9998155 L126.901628,74.9990249 C137.284714,74.9990249 145.701869,66.6044731 145.701869,56.2492687 L145.701869,31.2495937 C145.701869,20.8943893 137.284714,12.4998375 126.901628,12.4998375 Z M41.632012,12.4990468 L31.3337353,12.4998375 C20.9506488,12.4998375 12.5334941,20.8943893 12.5334941,31.2495937 L12.5334941,56.2492687 C12.5334941,66.6044731 20.9506488,74.9990249 31.3337353,74.9990249 L41.632012,74.9998155 C37.7089988,69.7762334 35.3847396,63.283495 35.3847396,56.2492687 L35.3847396,31.2495937 C35.3847396,24.2153674 37.7089988,17.722629 41.632012,12.4990468 Z M66.6289499,31.2495937 C70.0899788,31.2495937 72.895697,34.0477776 72.895697,37.4995125 L72.895697,49.9993499 C72.895697,53.4510847 70.0899788,56.2492687 66.6289499,56.2492687 C63.1679211,56.2492687 60.3622029,53.4510847 60.3622029,49.9993499 L60.3622029,37.4995125 C60.3622029,34.0477776 63.1679211,31.2495937 66.6289499,31.2495937 Z M91.6064132,31.2495937 C95.067442,31.2495937 97.8731603,34.0477776 97.8731603,37.4995125 L97.8731603,49.9993499 C97.8731603,53.4510847 95.067442,56.2492687 91.6064132,56.2492687 C88.1453844,56.2492687 85.3396662,53.4510847 85.3396662,49.9993499 L85.3396662,37.4995125 C85.3396662,34.0477776 88.1453844,31.2495937 91.6064132,31.2495937 Z" id="logo_ivory" fill="#000000" fill-rule="nonzero"></path>
    </g>
</svg>